<?xml version="1.0" encoding="UTF-8" standalone="no"?>
<svg
   width="3609.325"
   height="3609.3247"
   viewBox="0 0 954.96731 954.96725"
   version="1.1"
   id="svg1"
   sodipodi:docname="skyrim_color.svg"
   inkscape:version="1.4.2 (ebf0e940d0, 2025-05-08)"
   xmlns:inkscape="http://www.inkscape.org/namespaces/inkscape"
   xmlns:sodipodi="http://sodipodi.sourceforge.net/DTD/sodipodi-0.dtd"
   xmlns="http://www.w3.org/2000/svg"
   xmlns:svg="http://www.w3.org/2000/svg">
  <defs
     id="defs1" />
  <sodipodi:namedview
     id="namedview1"
     pagecolor="#505050"
     bordercolor="#eeeeee"
     borderopacity="1"
     inkscape:showpageshadow="0"
     inkscape:pageopacity="0"
     inkscape:pagecheckerboard="0"
     inkscape:deskcolor="#505050"
     inkscape:zoom="0.17228396"
     inkscape:cx="261.19669"
     inkscape:cy="2077.9648"
     inkscape:window-width="2560"
     inkscape:window-height="1403"
     inkscape:window-x="0"
     inkscape:window-y="0"
     inkscape:window-maximized="1"
     inkscape:current-layer="svg1" />
  <path
     fill="#ffffff"
     stroke="#000000"
     stroke-width="20"
     paint-order="markers stroke fill"
     d="m 471.6173,927.44147 c -1.907,-4.225 -9.412,-20.68 -16.676,-36.566 -28.62499,-62.598 -29.82699,-66.036 -25.79399,-73.845 1.193,-2.31 6.979,-11.392 12.856,-20.18 13.13999,-19.645 14.74999,-22.715 14.74999,-28.135 0,-2.567 -2.999,-11.106 -7.467,-21.262 -4.464,-10.147 -7.73499,-19.46 -8.13299,-23.157 -0.619,-5.737 -0.113,-7.292 6.98999,-21.509 4.21,-8.429 11.86,-22.792 16.997,-31.918 13.351,-23.716 14.9,-27.94 14.936,-40.706 0.016,-5.826 -0.818,-15.505 -1.853,-21.509 -2.967,-17.208 -10.137,-43.405 -14.09,-51.475 -7.48,-15.275 -20.361,-28.093 -37.05799,-36.877 -4.493,-2.363 -8.433,-4.297 -8.756,-4.297 -0.323,0 -0.52,7.328 -0.435,16.285 0.151,16.168 -1.008,27.962 -2.75,27.962 -0.499,0 -1.616,-3.429 -2.481,-7.62 -4.025,-19.484 -15.552,-34.625 -32.718,-42.976 l -9.83299,-4.783 -0.817,21.237 c -0.495,12.86 -2.07,29.166 -3.995,41.34 -1.747,11.056 -3.177,21.576 -3.177,23.377 0,4.28 9.246,19.99 16.53999,28.104 6.925,7.7 22.434,18.344 28.349,19.454 l 4.274,0.802 v 72.625 c 0,39.943 -0.468,72.1 -1.041,71.457 -0.573,-0.642 -12.815,-26.886 -27.204,-58.32 a 118874.77,118874.79 0 0 0 -50.71699,-110.618 81946.103,81946.117 0 0 1 -37.76899,-82.348 c -25.896,-56.604 -46.577,-101.6 -52.767,-114.808 l -6.284,-13.41 41.326,-89.833 c 22.72999,-49.41 44.52199,-96.748 48.42899,-105.198 17.049,-36.881 59.18199,-128.442998 71.52299,-155.430998 17.134,-37.471 15.53,-34.578 17.87,-32.24 1.434,1.436 2.026,5.579 2.436,17.044 0.622,17.45 1.549,21.227 7.483,30.511 3.861,6.042 7.61,15.354 7.61,18.906 0,0.719 -2.35,-1.256 -5.224,-4.388 -2.873,-3.133 -7.16,-6.322 -9.525,-7.087 -3.93,-1.271 -4.53,-1.128 -6.939,1.653 -5.136,5.931 -15.68,42.547998 -32.778,113.824998 -14.10199,58.79 -16.83599,75.586 -13.58799,83.476 0.952,2.31 6.463,9.11 12.247,15.11 10.25399,10.637 14.07599,16.784 15.88599,25.551 l 0.888,4.302 -7.836,-7.494 c -4.31,-4.122 -9.69399,-8.455 -11.96399,-9.629 -5.926,-3.064 -15.834,-3.832 -21.094,-1.634 l -4.32,1.805 -5.825,29.985 c -10.096,51.978 -11.11,64.586 -5.882,73.182 4.873,8.012 20.002,11.75 36.958,9.129 13.03799,-2.015 17.53599,-4.465 18.98799,-10.344 0.986,-3.993 0.722,-5.561 -1.708,-10.142 -2.716,-5.119 -9.194,-11.916 -16.05099,-16.84 -3.066,-2.2 -3.057,-2.204 4.06799,-1.516 18.797,1.814 38.223,20.282 45.696,43.44 1.16,3.593 2.387,6.254 2.728,5.913 1.498,-1.498 -2.391,-21.35 -5.747,-29.338 -2.024,-4.818 -3.521,-8.919 -3.327,-9.113 0.651,-0.651 9.993,6.008 14.733,10.502 2.578,2.443 5.864,6.338 7.302,8.655 4.29599,6.918 3.74999,2.6 -1.633,-12.922 -11.009,-31.74 -11.363,-33.233 -11.477,-48.443 -0.103,-13.468 0.08,-14.527 3.837,-22.46 7.548,-15.935 20.44499,-25.606 47.06299,-35.29 18.449,-6.711 26.93,-11.319 34.43699,-18.708 8.489,-8.356 10.342,-12.277 10.338,-21.869 0,-9.514 -2.852,-15.807 -10.119,-22.373 -11.12199,-10.048 -24.91899,-15.174 -38.27099,-14.219 -9.752,0.698 -16.57,3.58 -26.831,11.343 -9.29699,7.034 -14.12199,13.73 -16.92199,23.478 -2.514,8.758 -2.46,8.686 -4.928,6.638 -3.204,-2.659 -6.51,-10.22 -7.4,-16.92 -0.763,-5.76 -0.525,-6.65 2.97,-11.063 5.216,-6.585 6.333,-10.092 6.333,-19.88 0,-7.651 0.59,-9.636 6.453,-21.713 l 6.453,-13.293 -0.374,-19.913 c -0.347,-18.451 -0.177,-20.302 2.31099,-25.218 3.314,-6.547 7.366,-12.39 8.09,-11.666 0.298,0.298 -0.085,4.144 -0.852,8.546 -1.147,6.586 -1.057,9.321 0.508,15.43 2.993,11.682 9.154,26.657 12.416,30.176 2.929,3.16 3.262,3.215 19.502,3.215 20.197,0 30.55799,-2.575 35.93799,-8.932 l 3.363,-3.973 -0.904,3.687 c -1.06,4.323 -4.242,7.99 -10.412,12 -17.32599,11.26 -22.02799,14.756 -23.46399,17.439 -2.375,4.437 -0.418,6.086 11.872,10 17.13999,5.457 29.66599,15.337 36.26799,28.608 2.42,4.862 2.836,7.593 2.836,18.603 0,11.54 -0.362,13.677 -3.414,20.194 -7.149,15.265 -14.257,21.329 -42.77699,36.492 -21.89,11.637 -24.454,13.46 -28.34,20.132 -2.182,3.747 -2.846,6.704 -2.795,12.431 0.082,8.99 0.71,10.167 18.344,34.323 17.54,24.027 20.471,29.682 27.368,52.802 l 1.1,3.687 1.59799,-4.916 c 3.295,-10.132 8.579,-18.752 15.136,-24.69 7.56,-6.848 15.259,-11.773 14.056,-8.993 -5.56,12.855 -8.112,21.422 -8.753,29.381 -0.804,9.978 -0.274,9.634 4.23,-2.748 4.796,-13.178 14.853,-25.489 27.08,-33.148 4.25399,-2.665 15.43898,-5.908 20.09998,-5.828 l 3.772,0.064 -3.073,2.087 c -6.266,4.255 -13.79699,11.946 -16.08199,16.423 -4.97099,9.746 -2.25699,15.863 8.45699,19.062 8.422,2.514 28.365,2.892 34.753,0.66 6.228,-2.177 11.787,-8.443 13.63,-15.363 1.903,-7.15 0.374,-18.988 -8.429,-65.267 l -5.82,-30.594 -3.997,-1.67 c -10.304,-4.306 -20.941,-0.81 -33.18999,10.905 l -8.05599,7.705 0.88799,-4.302 c 1.809,-8.76 5.566,-14.759 16.30799,-26.035 13.442,-14.11 14.492,-16.677 12.57,-30.731 -2.001,-14.638 -8.753,-45.612 -18.437,-84.578 -15.59498,-62.753 -24.10798,-91.411998 -28.67398,-96.525998 -2.426,-2.718 -3.03,-2.845 -7.553,-1.59 -3.545,0.985 -6.062,2.887 -9.022,6.818 -2.257,2.998 -4.368,5.188 -4.69,4.866 -1.325,-1.326 2.595,-11.686 7.832,-20.7 l 5.592,-9.624 1.201,-17.518 c 1.121,-16.342 2.483,-22.067 4.693,-19.721 0.505,0.535 5.33,10.653 10.722,22.483 5.392,11.83 21.14698,46.12 35.01198,76.202998 41.922,90.961 125.15398,271.832 128.10698,278.387 l 2.768,6.146 -39.18599,85.42 a 246723.4,246723.44 0 0 1 -50.76799,110.618 c -51.713,112.489 -83.46398,181.679 -84.32598,183.749 -0.561,1.352 -1.056,-30.527 -1.099,-70.842 l -0.077,-73.301 4.155,-0.78 c 5.872,-1.101 18.55299,-9.628 26.54098,-17.845 3.735,-3.842 9.607,-11.747 13.05,-17.568 l 6.257,-10.583 -1.637,-10.241 c -4.742,-29.667 -5.654,-37.77 -6.39,-56.726 l -0.802,-20.673 -9.921,4.969 c -17.35998,8.695 -28.62498,23.504 -32.62998,42.893 -0.865,4.19 -1.937,7.619 -2.382,7.619 -2.035,0 -3.938,-19.055 -3.138,-31.426 l 0.836,-12.928 -3.961,2.048 c -5.66,2.927 -16.282,13.92 -19.45,20.13 -6.807,13.344 -7.59299,23.614 -4.368,57.095 4.147,43.051 3.925,43.912 -21.45499,83.073 -19.99,30.844 -24.97,39.974 -25.05,45.931 -0.036,2.792 2.337,13.372 5.275,23.512 2.939,10.14 5.344,20.402 5.345,22.804 0,4.93 -1.866,8.19 -17.57,30.661 -16.71599,23.92 -17.03399,24.982 -11.041,36.855 4.676,9.263 10.121,15.461 16.393,18.66 4.235,2.161 6.618,2.447 16.709,2.004 13.628,-0.599 19.92,-3.189 33.06099,-13.61 l 7.773,-6.164 -1.8,4.173 c -3.24,7.515 -32.40799,72.772 -36.88699,82.527 -2.405,5.239 -4.704,9.525 -5.109,9.525 -0.404,0 -2.296,-3.457 -4.204,-7.681 z"
     id="path1"
     style="stroke-width:39.6875;stroke-linecap:round;stroke-linejoin:round;stroke-dasharray:none" />
</svg>
