<svg fill="currentColor" width="3459.405" height="3459.405" viewBox="0 0 915.301 915.301" xmlns="http://www.w3.org/2000/svg">
   <path
      d="M451.784 907.62c-1.907-4.225-9.412-20.68-16.676-36.566-28.625-62.598-29.827-66.036-25.794-73.845 1.193-2.31 6.979-11.392 12.856-20.18 13.14-19.645 14.75-22.715 14.75-28.135 0-2.567-2.999-11.106-7.467-21.262-4.464-10.147-7.735-19.46-8.133-23.157-.619-5.737-.113-7.292 6.99-21.509 4.21-8.429 11.86-22.792 16.997-31.918 13.351-23.716 14.9-27.94 14.936-40.706.016-5.826-.818-15.505-1.853-21.509-2.967-17.208-10.137-43.405-14.09-51.475-7.48-15.275-20.361-28.093-37.058-36.877-4.493-2.363-8.433-4.297-8.756-4.297-.323 0-.52 7.328-.435 16.285.151 16.168-1.008 27.962-2.75 27.962-.499 0-1.616-3.429-2.481-7.62-4.025-19.484-15.552-34.625-32.718-42.976l-9.833-4.783-.817 21.237c-.495 12.86-2.07 29.166-3.995 41.34-1.747 11.056-3.177 21.576-3.177 23.377 0 4.28 9.246 19.99 16.54 28.104 6.925 7.7 22.434 18.344 28.349 19.454l4.274.802v72.625c0 39.943-.468 72.1-1.041 71.457-.573-.642-12.815-26.886-27.204-58.32a118874.79 118874.79 0 00-50.717-110.618 81946.117 81946.117 0 01-37.769-82.348c-25.896-56.604-46.577-101.6-52.767-114.808l-6.284-13.41 41.326-89.833c22.73-49.41 44.522-96.748 48.429-105.198 17.049-36.881 59.182-128.443 71.523-155.431 17.134-37.471 15.53-34.578 17.87-32.24 1.434 1.436 2.026 5.579 2.436 17.044.622 17.45 1.549 21.227 7.483 30.511 3.861 6.042 7.61 15.354 7.61 18.906 0 .719-2.35-1.256-5.224-4.388-2.873-3.133-7.16-6.322-9.525-7.087-3.93-1.271-4.53-1.128-6.939 1.653-5.136 5.931-15.68 42.548-32.778 113.825-14.102 58.79-16.836 75.586-13.588 83.476.952 2.31 6.463 9.11 12.247 15.11 10.254 10.637 14.076 16.784 15.886 25.551l.888 4.302-7.836-7.494c-4.31-4.122-9.694-8.455-11.964-9.629-5.926-3.064-15.834-3.832-21.094-1.634l-4.32 1.805-5.825 29.985c-10.096 51.978-11.11 64.586-5.882 73.182 4.873 8.012 20.002 11.75 36.958 9.129 13.038-2.015 17.536-4.465 18.988-10.344.986-3.993.722-5.561-1.708-10.142-2.716-5.119-9.194-11.916-16.051-16.84-3.066-2.2-3.057-2.204 4.068-1.516 18.797 1.814 38.223 20.282 45.696 43.44 1.16 3.593 2.387 6.254 2.728 5.913 1.498-1.498-2.391-21.35-5.747-29.338-2.024-4.818-3.521-8.919-3.327-9.113.651-.651 9.993 6.008 14.733 10.502 2.578 2.443 5.864 6.338 7.302 8.655 4.296 6.918 3.75 2.6-1.633-12.922-11.009-31.74-11.363-33.233-11.477-48.443-.103-13.468.08-14.527 3.837-22.46 7.548-15.935 20.445-25.606 47.063-35.29 18.449-6.711 26.93-11.319 34.437-18.708 8.489-8.356 10.342-12.277 10.338-21.869 0-9.514-2.852-15.807-10.119-22.373-11.122-10.048-24.919-15.174-38.271-14.219-9.752.698-16.57 3.58-26.831 11.343-9.297 7.034-14.122 13.73-16.922 23.478-2.514 8.758-2.46 8.686-4.928 6.638-3.204-2.659-6.51-10.22-7.4-16.92-.763-5.76-.525-6.65 2.97-11.063 5.216-6.585 6.333-10.092 6.333-19.88 0-7.651.59-9.636 6.453-21.713l6.453-13.293-.374-19.913c-.347-18.451-.177-20.302 2.311-25.218 3.314-6.547 7.366-12.39 8.09-11.666.298.298-.085 4.144-.852 8.546-1.147 6.586-1.057 9.321.508 15.43 2.993 11.682 9.154 26.657 12.416 30.176 2.929 3.16 3.262 3.215 19.502 3.215 20.197 0 30.558-2.575 35.938-8.932l3.363-3.973-.904 3.687c-1.06 4.323-4.242 7.99-10.412 12-17.326 11.26-22.028 14.756-23.464 17.439-2.375 4.437-.418 6.086 11.872 10 17.14 5.457 29.666 15.337 36.268 28.608 2.42 4.862 2.836 7.593 2.836 18.603 0 11.54-.362 13.677-3.414 20.194-7.149 15.265-14.257 21.329-42.777 36.492-21.89 11.637-24.454 13.46-28.34 20.132-2.182 3.747-2.846 6.704-2.795 12.431.082 8.99.71 10.167 18.344 34.323 17.54 24.027 20.471 29.682 27.368 52.802l1.1 3.687 1.598-4.916c3.295-10.132 8.579-18.752 15.136-24.69 7.56-6.848 15.259-11.773 14.056-8.993-5.56 12.855-8.112 21.422-8.753 29.381-.804 9.978-.274 9.634 4.23-2.748 4.796-13.178 14.853-25.489 27.08-33.148 4.254-2.665 15.439-5.908 20.1-5.828l3.772.064-3.073 2.087c-6.266 4.255-13.797 11.946-16.082 16.423-4.971 9.746-2.257 15.863 8.457 19.062 8.422 2.514 28.365 2.892 34.753.66 6.228-2.177 11.787-8.443 13.63-15.363 1.903-7.15.374-18.988-8.429-65.267l-5.82-30.594-3.997-1.67c-10.304-4.306-20.941-.81-33.19 10.905l-8.056 7.705.888-4.302c1.809-8.76 5.566-14.759 16.308-26.035 13.442-14.11 14.492-16.677 12.57-30.731-2.001-14.638-8.753-45.612-18.437-84.578-15.595-62.753-24.108-91.412-28.674-96.526-2.426-2.718-3.03-2.845-7.553-1.59-3.545.985-6.062 2.887-9.022 6.818-2.257 2.998-4.368 5.188-4.69 4.866-1.325-1.326 2.595-11.686 7.832-20.7l5.592-9.624 1.201-17.518c1.121-16.342 2.483-22.067 4.693-19.721.505.535 5.33 10.653 10.722 22.483 5.392 11.83 21.147 46.12 35.012 76.203 41.922 90.961 125.154 271.832 128.107 278.387l2.768 6.146-39.186 85.42a246723.44 246723.44 0 01-50.768 110.618C557.973 692.25 526.222 761.44 525.36 763.51c-.561 1.352-1.056-30.527-1.099-70.842l-.077-73.301 4.155-.78c5.872-1.101 18.553-9.628 26.541-17.845 3.735-3.842 9.607-11.747 13.05-17.568l6.257-10.583-1.637-10.241c-4.742-29.667-5.654-37.77-6.39-56.726l-.802-20.673-9.921 4.969c-17.36 8.695-28.625 23.504-32.63 42.893-.865 4.19-1.937 7.619-2.382 7.619-2.035 0-3.938-19.055-3.138-31.426l.836-12.928-3.961 2.048c-5.66 2.927-16.282 13.92-19.45 20.13-6.807 13.344-7.593 23.614-4.368 57.095 4.147 43.051 3.925 43.912-21.455 83.073-19.99 30.844-24.97 39.974-25.05 45.931-.036 2.792 2.337 13.372 5.275 23.512 2.939 10.14 5.344 20.402 5.345 22.804 0 4.93-1.866 8.19-17.57 30.661-16.716 23.92-17.034 24.982-11.041 36.855 4.676 9.263 10.121 15.461 16.393 18.66 4.235 2.161 6.618 2.447 16.709 2.004 13.628-.599 19.92-3.189 33.061-13.61l7.773-6.164-1.8 4.173c-3.24 7.515-32.408 72.772-36.887 82.527-2.405 5.239-4.704 9.525-5.109 9.525-.404 0-2.296-3.457-4.204-7.681z" />
</svg>