<svg xmlns="http://www.w3.org/2000/svg" width="18.633" height="18.633" viewBox="0 0 18.633 18.633" >
    <path
        d="M9.916 7.783c-7.19 1.473-8.49-.004-8.583-.477-.093-.473 1.148-2.247 7.447-3.454 6.298-1.208 8.055-.25 8.234.349.134.545.09 2.109-7.098 3.582m8.65-3.748C18.307 3.01 16.08 1.2 8.625 2.606 1.172 4.013-.188 6.734.02 7.708c.167.916 1.873 3.449 10.37 1.681 8.496-1.72 8.411-4.415 8.175-5.354zM3.53 11.44s1.405 1.136 4.72 1.136c3.313 0 4.466-1.278 4.466-1.278s.973 2.13-4.214 2.13c-4.071 0-4.972-1.988-4.972-1.988"
        fill-rule="evenodd" fill="#ffa726" />
    <path
        d="M4.677 13.1s1.325 1.16 3.617 1.16c1.576 0 1.79-.254 1.79-.254-.002 0-.29.98-2.292.979-2.005-.002-3.115-1.414-3.115-1.885M14.894 8.369c-.726 1.458-5.902 2.378-8.614 2.355-2.594-.022-4.388-.793-4.388-.793s.886 1.734 5.748 1.775c4.863.042 8.985-1.829 9-3.376a1.104 1.104 0 00-.207-.638c-.443.229-.953.455-1.539.677M10.475 6.055C7.525 6.03 4.349 7.12 4.349 7.12c2.347-.708 5.804-.709 8.129-.316.498-.145.926-.29 1.293-.431-1.006-.206-2.168-.308-3.296-.318"
        fill-rule="evenodd" fill="#ffa726" />
    <path
        d="M3.776 7.415c.594.025 1.361.143 1.885.36l-.61-.76.034-.96c-.293.472-.842 1.003-1.309 1.36M6.152 16.362a1.486 1.486 0 01-.653-.158 1.532 1.532 0 01-.56-.482l-.426.819M5.177 14.575s.765 1.179 2.695 1c0 0-.893.748-1.93.178-.91-.5-.765-1.178-.765-1.178"
        fill-rule="evenodd" fill="#ffa726" />
</svg>