<svg width="629.363" height="629.363" viewBox="0 0 629.363 629.363" xmlns="http://www.w3.org/2000/svg" clip-rule="evenodd" fill-rule="evenodd"
   stroke-linejoin="round" stroke-miterlimit="2">
   <g fill-rule="nonzero">
      <path
         d="M247.446 342.842c2.293-40.91 22.327-76.953 52.55-102.503 29.64-25.096 69.533-40.435 113.062-40.435 43.485 0 83.379 15.339 113.04 40.435 30.201 25.55 50.235 61.593 52.55 102.46 2.293 42.036-14.604 81.086-44.243 110.033-30.223 29.444-73.21 47.92-121.347 47.92s-91.211-18.476-121.413-47.92c-29.66-28.947-46.514-67.997-44.2-109.99z"
         fill="#fff" />
      <path
         d="M328.087 346.514c1.177-20.991 11.456-39.485 26.964-52.595 15.208-12.877 35.678-20.747 58.013-20.747 22.312 0 42.782 7.87 58.001 20.747 15.497 13.11 25.776 31.604 26.964 52.573 1.176 21.569-7.493 41.606-22.701 56.458-15.508 15.109-37.565 24.589-62.264 24.589-24.7 0-46.801-9.48-62.298-24.589-15.219-14.852-23.866-34.89-22.679-56.436z"
         fill="#265787" />
      <path
         d="M192.769 388.93c.144 8.215 2.764 24.178 6.694 36.644 8.259 26.386 22.268 50.797 41.76 72.31 20.004 22.113 44.637 39.874 73.088 52.484 29.906 13.244 62.309 19.993 95.966 19.937 33.602-.044 66.005-6.926 95.91-20.27 28.452-12.732 53.062-30.571 73.033-52.695 19.482-21.602 33.469-46.057 41.75-72.443 4.163-13.332 6.793-26.864 7.848-40.44 1.032-13.377.6-26.775-1.299-40.163-3.707-26.087-12.732-50.564-26.63-72.876-12.71-20.503-29.096-38.453-48.577-53.561l.044-.034L355.75 66.864c-.177-.133-.322-.277-.51-.4-12.9-9.901-34.59-9.868-48.777.056-14.342 10.035-15.985 26.63-3.22 37.099l-.055.055 82.002 66.682-249.934.267h-.333c-20.659.022-40.518 13.576-44.447 30.705-4.041 17.45 9.99 31.925 31.47 32.003l-.033.078 126.682-.245L22.539 406.68c-.289.211-.6.433-.866.644C.348 423.654-6.545 450.806 6.887 467.99c13.632 17.472 42.616 17.506 64.162.1l123.374-100.973s-1.798 13.632-1.654 21.813zm317.027 45.647c-25.421 25.898-61.01 40.584-99.519 40.662-38.564.066-74.153-14.487-99.573-40.34-12.422-12.6-21.547-27.098-27.175-42.539-5.517-15.174-7.66-31.282-6.239-47.533 1.343-15.885 6.072-31.038 13.62-44.747 7.416-13.477 17.629-25.654 30.24-35.956 24.71-20.136 56.17-31.037 89.072-31.082 32.936-.044 64.373 10.757 89.106 30.827 12.588 10.257 22.79 22.39 30.205 35.844 7.582 13.699 12.277 28.796 13.676 44.725 1.399 16.23-.744 32.315-6.26 47.5-5.64 15.486-14.732 29.984-27.153 42.639z"
         fill="#ea7600" />
   </g>
</svg>