<svg xmlns="http://www.w3.org/2000/svg"  viewBox="0 0 48 48" width="48px" height="48px" baseProfile="basic"><linearGradient id="eNX9ZZqOx82bRTBBE37-Ca" x1="7.321" x2="41.534" y1="-2.014" y2="51.348" gradientUnits="userSpaceOnUse"><stop offset="0" stop-color="#f0f0f0"/><stop offset="1" stop-color="#bbc1c4"/></linearGradient><path fill="url(#eNX9ZZqOx82bRTBBE37-Ca)" d="M8,4h32v40H8V4z"/><linearGradient id="eNX9ZZqOx82bRTBBE37-Cb" x1="37.355" x2="9.653" y1="9.614" y2="33.231" gradientUnits="userSpaceOnUse"><stop offset=".309" stop-color="#33bef0"/><stop offset="1" stop-color="#0a85d9"/></linearGradient><path fill="url(#eNX9ZZqOx82bRTBBE37-Cb)" d="M10,6h28v30H10V6z"/><linearGradient id="eNX9ZZqOx82bRTBBE37-Cc" x1="35.096" x2="19.417" y1="19.55" y2="33.642" gradientUnits="userSpaceOnUse"><stop offset=".316" stop-color="#e3f2fd"/><stop offset="1" stop-color="#90caf9"/></linearGradient><path fill="url(#eNX9ZZqOx82bRTBBE37-Cc)" d="M37,28c-0.36,0-0.7,0.074-1.019,0.19	C35.984,28.125,36,28.065,36,28c0-2.209-1.791-4-4-4c-1.312,0-2.467,0.641-3.196,1.617C28.301,25.235,27.68,25,27,25	c-0.87,0-1.646,0.376-2.194,0.967C24.384,24.821,23.292,24,22,24c-0.382,0-0.744,0.078-1.08,0.208C20.553,22.379,18.938,21,17,21	c-1.885,0-3.455,1.308-3.878,3.063C12.919,24.026,12.713,24,12.5,24c-0.981,0-1.865,0.406-2.5,1.056V27v2.945V34h28v-0.184V31	v-2.816C37.686,28.072,37.353,28,37,28z"/><linearGradient id="eNX9ZZqOx82bRTBBE37-Cd" x1="18.307" x2="36.401" y1="30.691" y2="41.27" gradientUnits="userSpaceOnUse"><stop offset="0" stop-color="#0077d2"/><stop offset="1" stop-color="#0b59a2"/></linearGradient><polygon fill="url(#eNX9ZZqOx82bRTBBE37-Cd)" points="10,30 16,31 21,29 38.043,32.064 38,36 10,36"/><linearGradient id="eNX9ZZqOx82bRTBBE37-Ce" x1="21.321" x2="38.848" y1="16.66" y2="7.248" gradientUnits="userSpaceOnUse"><stop offset=".316" stop-color="#e3f2fd"/><stop offset="1" stop-color="#90caf9"/></linearGradient><path fill="url(#eNX9ZZqOx82bRTBBE37-Ce)" d="M38,6H18.106	c0.209,0.708,0.629,1.358,1.27,1.828c0.172,0.126,0.354,0.227,0.539,0.317c-0.696,1.665-0.204,3.649,1.316,4.763	c1.563,1.146,3.68,0.989,5.059-0.269c0.194,0.304,0.44,0.581,0.748,0.807c1.042,0.764,2.408,0.747,3.426,0.073	c0.092,0.801,0.496,1.563,1.198,2.077c0.549,0.402,1.188,0.58,1.82,0.569c0.011,1.219,0.563,2.418,1.621,3.194	c0.869,0.637,1.909,0.865,2.898,0.732V6z"/><path d="M40,16.644L22.149,31.015c-1.006-0.029-2.017,0.304-2.78,0.972c-0.661,0.578-1.419,1.911-2.316,4.076	c-0.214,0.516-0.91,1.297-1.421,1.87c-0.926,1.039-1.726,1.937-0.968,2.794c0.238,0.271,0.551,0.408,0.929,0.408	c0.567,0,1.229-0.311,2.146-0.739c0.664-0.312,1.489-0.699,2.002-0.79c3.838-0.677,4.602-1.341,4.891-1.592	c0.761-0.665,1.241-1.615,1.338-2.632L40,22.412V16.644z" opacity=".05"/><path d="M40,17.286L22.311,31.527c-0.95-0.093-1.898,0.211-2.612,0.836c-0.594,0.519-1.328,1.827-2.184,3.891	c-0.246,0.594-0.945,1.378-1.508,2.009c-0.893,1.002-1.433,1.607-0.967,2.134c0.146,0.167,0.328,0.238,0.553,0.238	c0.454,0,1.081-0.293,1.934-0.692c0.729-0.342,1.554-0.728,2.127-0.829c3.706-0.653,4.415-1.273,4.648-1.477	c0.719-0.628,1.142-1.523,1.182-2.487L40,21.731V17.286z" opacity=".07"/><path fill="#ff1744" d="M22.417,32.084l20.93-16.85c0.419-0.359,1.05-0.311,1.41,0.109c0.359,0.419,0.31,1.05-0.109,1.41	L24.93,34.98L22.417,32.084z"/><path fill="#fff" d="M24.856,30.12l-2.439,1.964l2.513,2.896l2.342-2.165C26.815,30.763,25.326,30.236,24.856,30.12z"/><linearGradient id="eNX9ZZqOx82bRTBBE37-Cf" x1="25.948" x2="21.256" y1="31.857" y2="35.591" gradientUnits="userSpaceOnUse"><stop offset="0" stop-color="#64717c"/><stop offset="1" stop-color="#f0f0f0"/></linearGradient><path fill="url(#eNX9ZZqOx82bRTBBE37-Cf)" d="M23.973,37.26	c-0.684,0.597-2.713,1.063-4.407,1.361c-1.397,0.246-3.792,1.852-4.152,1.445c-0.34-0.385,1.996-2.26,2.561-3.622	c0.611-1.472,1.403-3.139,2.051-3.705c1.248-1.09,3.143-0.961,4.233,0.287C25.349,34.275,25.221,36.17,23.973,37.26z"/><path fill="#0077d2" d="M18.144,38.343l0.024-0.479l-0.732-0.526c-0.878,1.18-2.29,2.423-2.02,2.728	c0.288,0.326,1.878-0.632,3.22-1.156L18.144,38.343z"/></svg>