<svg width="799.436" height="800" viewBox="0 0 211.517 211.667" xmlns:xlink="http://www.w3.org/1999/xlink"
  xmlns="http://www.w3.org/2000/svg">
  <g transform="translate(-.075)">
    <circle cx="105.833" cy="105.833" fill="#9aadb1" stroke="#000" stroke-width="4.736" stroke-linecap="round"
      stroke-linejoin="round" r="103.391" />
    <circle cx="105.833" cy="105.833" r="62.006" stroke="#000" stroke-width="3.969" stroke-linecap="round"
      stroke-linejoin="round" paint-order="stroke fill markers" />
    <path stroke="#0c0000" stroke-width="3.969" stroke-linecap="round" stroke-linejoin="round"
      paint-order="stroke fill markers" d="M95.001 24.886h21.665V186.78H95.001z" />
    <path stroke="#0c0000" stroke-width="3.969" stroke-linecap="round" stroke-linejoin="round"
      paint-order="stroke fill markers" d="M186.781 95.001v21.665H24.887V95.001z" />
    <path stroke="#0c0000" stroke-width="3.969" stroke-linecap="round" stroke-linejoin="round"
      paint-order="stroke fill markers" d="M170.732 56.255l-15.32-15.32L40.936 155.413l15.32 15.32z" />
    <path stroke="#0c0000" stroke-width="3.969" stroke-linecap="round" stroke-linejoin="round"
      paint-order="stroke fill markers" d="M40.935 56.255l15.32-15.32L170.73 155.413l-15.32 15.32z" />
    <path
      d="M104.992 206.129c-.425-.942-2.098-4.61-3.717-8.15-6.38-13.954-6.648-14.72-5.75-16.46.266-.516 1.556-2.54 2.866-4.499 2.929-4.379 3.288-5.063 3.288-6.271 0-.572-.669-2.476-1.665-4.74-.994-2.261-1.724-4.337-1.812-5.161-.138-1.279-.027-1.626 1.558-4.795.938-1.878 2.643-5.08 3.788-7.114 2.976-5.287 3.322-6.228 3.33-9.073.004-1.3-.183-3.457-.413-4.795-.662-3.836-2.26-9.675-3.141-11.474-1.667-3.404-4.539-6.261-8.26-8.22-1.002-.526-1.88-.957-1.952-.957-.072 0-.116 1.633-.097 3.63.034 3.604-.225 6.232-.613 6.232-.112 0-.36-.764-.553-1.698-.897-4.343-3.467-7.718-7.293-9.58l-2.192-1.066-.182 4.734c-.11 2.867-.461 6.501-.89 9.215-.39 2.464-.708 4.809-.708 5.21 0 .955 2.06 4.456 3.687 6.265 1.543 1.716 5 4.089 6.318 4.336l.953.179v16.188c0 8.903-.104 16.07-.232 15.928-.128-.144-2.856-5.993-6.064-13-3.207-7.007-8.294-18.102-11.304-24.657-3.01-6.554-6.799-14.814-8.419-18.355-5.772-12.617-10.382-22.647-11.762-25.59l-1.4-2.99 9.211-20.024A30949.8 30949.8 0 0172.367 45.93c3.8-8.22 13.191-28.63 15.942-34.646 3.82-8.352 3.462-7.707 3.983-7.186.32.32.452 1.244.543 3.8.14 3.889.345 4.73 1.668 6.8.861 1.347 1.697 3.422 1.697 4.214 0 .16-.524-.28-1.165-.978-.64-.698-1.596-1.409-2.123-1.58-.876-.283-1.01-.25-1.547.369-1.144 1.322-3.495 9.484-7.306 25.371-3.143 13.105-3.753 16.848-3.028 18.607.212.515 1.44 2.03 2.73 3.368 2.285 2.371 3.137 3.741 3.54 5.695l.198.96-1.747-1.671c-.96-.919-2.16-1.885-2.666-2.146-1.321-.683-3.53-.854-4.702-.365l-.963.403-1.299 6.683c-2.25 11.586-2.476 14.397-1.31 16.313 1.086 1.786 4.458 2.619 8.237 2.034 2.906-.449 3.91-.995 4.233-2.305.22-.89.16-1.24-.381-2.26-.605-1.142-2.05-2.657-3.578-3.754-.683-.491-.681-.492.907-.338 4.19.404 8.52 4.52 10.186 9.683.258.8.532 1.393.608 1.317.334-.334-.533-4.759-1.281-6.539-.452-1.074-.785-1.988-.742-2.031.145-.145 2.228 1.339 3.284 2.34.575.545 1.307 1.413 1.628 1.93.957 1.542.836.58-.364-2.88-2.454-7.075-2.533-7.408-2.559-10.798-.022-3.002.019-3.239.855-5.007 1.683-3.552 4.558-5.707 10.49-7.866 4.113-1.496 6.004-2.523 7.677-4.17 1.892-1.862 2.305-2.737 2.304-4.874 0-2.121-.635-3.524-2.255-4.987-2.48-2.24-5.555-3.383-8.53-3.17-2.175.155-3.694.798-5.981 2.529-2.073 1.567-3.148 3.06-3.772 5.233-.56 1.952-.549 1.936-1.099 1.48-.714-.593-1.451-2.279-1.65-3.772-.17-1.284-.116-1.482.663-2.466 1.162-1.468 1.411-2.25 1.411-4.431 0-1.706.132-2.148 1.439-4.84l1.438-2.963-.083-4.439c-.077-4.112-.04-4.525.515-5.62.739-1.46 1.642-2.763 1.803-2.601.067.066-.018.923-.19 1.905-.255 1.468-.235 2.077.113 3.439.667 2.604 2.04 5.942 2.768 6.726.652.705.727.717 4.347.717 4.502 0 6.811-.574 8.01-1.991l.75-.886-.202.822c-.236.964-.945 1.781-2.32 2.675-3.862 2.51-4.91 3.289-5.23 3.887-.53.99-.094 1.357 2.646 2.229 3.82 1.217 6.612 3.419 8.084 6.377.54 1.083.632 1.692.632 4.147 0 2.572-.08 3.048-.761 4.5-1.593 3.403-3.178 4.755-9.535 8.135-4.88 2.594-5.45 3-6.317 4.487-.486.835-.634 1.494-.623 2.771.019 2.004.158 2.266 4.089 7.65 3.91 5.356 4.563 6.617 6.1 11.77l.245.822.357-1.096c.734-2.258 1.912-4.18 3.373-5.503 1.686-1.527 3.402-2.624 3.134-2.005-1.24 2.866-1.809 4.775-1.952 6.55-.179 2.223-.06 2.147.944-.613 1.068-2.938 3.31-5.682 6.035-7.389.949-.594 3.442-1.317 4.48-1.299l.841.015-.685.465c-1.396.949-3.075 2.663-3.584 3.661-1.108 2.172-.503 3.536 1.885 4.249 1.877.56 6.322.644 7.746.147 1.389-.485 2.628-1.882 3.038-3.425.425-1.594.084-4.232-1.878-14.548l-1.297-6.819-.891-.372c-2.297-.96-4.668-.18-7.399 2.43l-1.795 1.718.197-.959c.404-1.953 1.241-3.29 3.636-5.803 2.996-3.145 3.23-3.717 2.801-6.85-.446-3.263-1.95-10.167-4.11-18.853-3.475-13.987-5.373-20.375-6.39-21.515-.542-.606-.676-.634-1.684-.354-.79.219-1.351.643-2.011 1.52-.503.668-.974 1.156-1.046 1.084-.295-.295.579-2.605 1.746-4.614l1.247-2.145.267-3.905c.25-3.643.554-4.919 1.046-4.396.113.12 1.188 2.375 2.39 5.012 1.202 2.636 4.714 10.28 7.804 16.985 9.345 20.275 27.897 60.591 28.555 62.053l.617 1.37-8.734 19.04a55036.782 55036.782 0 01-11.316 24.656c-11.527 25.074-18.604 40.496-18.796 40.958-.125.301-.236-6.805-.245-15.791l-.019-16.339.926-.173c1.31-.246 4.136-2.146 5.916-3.978.833-.856 2.142-2.619 2.909-3.916l1.395-2.359-.365-2.283c-1.057-6.612-1.26-8.418-1.424-12.644l-.179-4.608-2.211 1.108c-3.87 1.938-6.38 5.239-7.273 9.56-.193.935-.432 1.699-.532 1.699-.453 0-.877-4.247-.699-7.005l.187-2.882-.883.457c-1.262.652-3.63 3.103-4.336 4.487-1.517 2.974-1.692 5.263-.973 12.726.924 9.596.874 9.788-4.783 18.517-4.456 6.875-5.565 8.91-5.583 10.238-.008.622.52 2.98 1.176 5.241.654 2.26 1.19 4.548 1.19 5.083 0 1.099-.415 1.826-3.915 6.834-3.727 5.332-3.797 5.569-2.462 8.215 1.043 2.065 2.256 3.447 3.654 4.16.944.481 1.476.545 3.725.446 3.038-.133 4.44-.71 7.37-3.033l1.732-1.374-.401.93c-.723 1.675-7.224 16.22-8.222 18.395-.537 1.168-1.049 2.123-1.14 2.123-.09 0-.511-.77-.936-1.712z"
      fill="#ff000b" stroke="#000" stroke-width="7.651" paint-order="markers stroke fill" />
  </g>
</svg>