<svg fill="currentColor" width="1279.49" height="1279.49" viewBox="0 0 1279.49 1279.49" xmlns="http://www.w3.org/2000/svg">
   <path
      d="M521.49 998.231c-76.622-5.941-151.377-35.567-208.885-82.781-55.864-45.864-96.58-107.378-116.097-175.401-2.21-7.703-4.018-14.146-4.018-14.319 0-.173 2.185-.615 4.855-.982 6.18-.85 11.4 1.207 14.029 5.53 1.06 1.743 4.052 9.308 6.649 16.81 25.42 73.447 69.5 131.965 129.876 172.414 23.786 15.936 49.154 28.726 56.974 28.726 8.22 0 12.643-13.453 7.9-24.033-1.101-2.457-8.393-12.117-16.205-21.467-23.511-28.142-24.667-31.813-11.81-37.5l4.694-2.077 12.769 2.063c14.766 2.385 30.548 6.013 41.269 9.488 16.82 5.452 28.043 7.364 61.5 10.476 24.195 2.25 30.21 3.837 43.6 11.502 15.164 8.68 25.405 16.895 31.67 25.4 3.099 4.207 8.805 10.857 12.682 14.78 7.558 7.647 11.085 9.443 26.548 13.519 9.403 2.479 32.523 3.559 42.576 1.99 19.75-3.084 39.823-11.847 63.424-27.688 29.284-19.656 47.038-34.527 65.972-55.258 5.678-6.218 11.945-12.127 13.926-13.13 4.702-2.383 11.115-3.407 16.076-2.57l3.975.672-2.46 4.854c-7.07 13.95-31.561 40.548-51.49 55.917-69.574 53.655-175.48 88.843-250 83.065zm6.5-124.003c-.34-.55-3.18-1.003-6.31-1.006-7.932-.008-12.631-1.541-15.626-5.1-3.274-3.89-3.233-5.896.186-9.084 6.602-6.155 21.668-8.745 31.164-5.358 5.97 2.13 7.086 3.238 7.086 7.036 0 4.247-2.83 7.696-9.399 11.454-5.939 3.398-6.222 3.48-7.101 2.058zm-183.555-17.45c-7.237-2.667-12.075-5.724-17.254-10.902-7.54-7.541-9.73-12.794-11.001-26.384-.578-6.18-.811-11.476-.519-11.768.854-.855 20.238 6.218 30.66 11.188 11.353 5.412 19.761 13.043 22.612 20.52 1.742 4.57 1.738 4.8-.13 8-1.058 1.813-4.338 4.983-7.289 7.046-5.907 4.128-10.453 4.74-17.079 2.3zm505.555-22.194c-12.856-3.47-18.442-6.471-44.528-23.917-12.776-8.545-25.534-16.704-28.35-18.133-5.354-2.715-21.043-8.306-23.31-8.306-1.048 0-1.312 5.01-1.312 24.87v24.868l-3.75.62c-2.063.341-4.988.625-6.5.631l-2.75.011V731.413l5.75-.402c3.162-.221 6.087-.236 6.5-.034.412.203.75 10.948.75 23.877 0 21.924.118 23.473 1.75 22.98.962-.29 5.35-1.487 9.75-2.658 10.035-2.673 15.447-5.615 40.702-22.132 23.577-15.418 30.057-18.786 42.131-21.891 7.516-1.933 8.969-2.06 9.735-.849.496.783.908 1.894.916 2.47.008.574-15.955 11.6-35.475 24.5-19.52 12.9-35.374 23.816-35.231 24.259.142.443 17.361 12.143 38.265 26 33.163 21.984 37.963 25.482 37.662 27.445-.42 2.745-1.165 2.722-12.705-.394zm25.5-51.267v-51.911l6.002-.34 6.001-.338-.002 51.625-.002 51.625-3.125.625c-1.718.344-4.418.625-6 .625h-2.874zm78 4.911v-47h-22.114c-20.883 0-22.33-.122-26-2.184-2.137-1.201-3.886-2.515-3.886-2.919 0-.403 1.687-1.783 3.75-3.065l3.75-2.332h103l3.299 2.353c1.814 1.294 3.137 2.84 2.938 3.434-.198.594-2.113 1.99-4.256 3.103-3.506 1.819-5.83 2.026-23.161 2.066-26.113.06-23.923-2.63-23.479 28.834.188 13.315.026 33.322-.36 44.46l-.701 20.25h-12.78zm-913-88.023c-25.271-1.772-34.929-9.913-39.121-32.977-1.835-10.094-1.822-50.726.019-61C5.12 585.39 13.21 576.931 32.183 574.03c10.693-1.635 83.534-1.675 96.307-.052 18.548 2.356 26.325 6.4 31.25 16.25 3.071 6.144 5.284 19.882 4.218 26.193l-.644 3.807H126.65l-.664-3.024c-.963-4.384-4.92-8.591-9.853-10.475-3.705-1.415-8.247-1.598-32.722-1.322-28.191.319-28.455.341-32.836 2.821-6.59 3.73-8.141 7.581-9.316 23.132-1.118 14.792-.026 25.67 2.993 29.808 1.027 1.408 3.64 3.46 5.804 4.56 3.692 1.876 5.914 2 35.935 2 38.415 0 36.318.626 40.132-11.979 1.452-4.797 4.166-5.49 21.573-5.506l15.704-.015.772 3.75c.425 2.063.758 8.025.742 13.25-.024 7.656-.466 10.471-2.278 14.5-3.942 8.77-10.4 13.933-21.645 17.304-4.036 1.21-13.094 1.546-47 1.74-23.1.132-47.175-.123-53.5-.567zm494.317.275l-15.182-.303 2.07-4.678c1.137-2.573 11.614-22.249 23.28-43.724 11.667-21.476 24.935-46.022 29.485-54.547 11.792-22.094 13.26-23.352 29.13-24.952 23.703-2.39 40.211 6.3 49.757 26.192 14.942 31.139 19.46 39.803 31.677 60.76 7.536 12.925 15.655 27.325 18.043 32l4.341 8.5-19.691.272c-23.035.318-22.314.577-28.88-10.357-7.207-12.003-4.848-11.415-45.773-11.415-31.462 0-35.387.178-37.602 1.704-3.502 2.414-4.687 4.146-6.51 9.517-.882 2.596-2.935 5.841-4.564 7.211-3.125 2.63-9.047 4.703-12.398 4.34-1.1-.118-8.832-.353-17.183-.52zm101.683-51.53c0-.677-22.207-42.314-22.988-43.102-.5-.504-5.614 8.593-11.947 21.25l-11.074 22.13h23.005c12.652 0 23.004-.125 23.004-.278zm317 51.187c-20.186-1.037-30.941-7.273-37.027-21.472-3.133-7.308-4.287-23.456-3.642-50.937.48-20.432.873-24.997 2.643-30.708 4.297-13.859 13.567-20.842 30.526-22.994 11.401-1.447 91.121-1.457 105.163-.014 11.807 1.215 17.374 3.366 23.627 9.13 6.07 5.595 9.534 13.665 10.868 25.32 1.44 12.579.434 54.149-1.522 62.897-4.078 18.24-13.683 26.327-34.316 28.891-8.814 1.096-74.295 1.019-96.32-.113zm84.143-34.675c6.034-3.752 7.222-7.569 7.682-24.686.582-21.607-1.608-28.799-10.108-33.194-4.713-2.437-30.25-3.718-51.494-2.582-26.588 1.422-27.933 2.47-30.728 23.953-1.773 13.63-1.018 22.057 2.68 29.924 2.286 4.864 5.053 7.167 10.1 8.405 1.773.436 17.85.714 35.725.619 31.883-.17 32.569-.216 36.143-2.439zm184.06 33.717c-5.406-2.169-10.784-8.223-41.896-47.162l-32.807-41.061-.26 44.136-.261 44.136h-39.89l-.295-59.25c-.315-63.38-.198-65.108 4.474-66.281 1.32-.332 13.163-.46 26.316-.286 23.885.317 23.922.32 29.137 3.07 5.73 3.02 12.356 10.766 52.279 61.115l20.5 25.854.26-43.997c.225-37.998.468-44.17 1.786-45.263 1.067-.886 6.008-1.295 16.456-1.364 14.654-.096 14.979-.051 17.444 2.404 1.605 1.599 2.88 4.443 3.532 7.886.619 3.262 1.022 27.413 1.022 61.249v55.863l-27.75-.063c-15.263-.035-28.784-.479-30.048-.986zM189.49 636.773V574.32l3.25-.597c1.788-.327 30.025-.46 62.75-.295l59.5.301 7.506 3.585c17.475 8.346 26.163 24.585 23.87 44.614-.624 5.452-2.012 9.24-6.998 19.098l-6.22 12.297 3.553 2.928c1.953 1.61 4.334 4.852 5.29 7.203 1.959 4.819 3.206 23.573 2.071 31.141l-.695 4.634H305.634l-.615-5.75c-1.903-17.808-3.508-21.8-9.623-23.944-3.585-1.256-61.24-1.883-64.324-.699-1.345.516-1.582 2.842-1.582 15.5v14.893h-40zm111.72-3.517c3.685-2.443 4.678-6.184 3.252-12.245-2.005-8.52-4.39-12.417-8.049-13.148-1.745-.35-17.517-.635-35.048-.635H229.49v28.097l34.75-.299c28.56-.245 35.146-.56 36.97-1.77zm67.5 6.545c.276-58.503.313-59.471 2.37-62.227 1.15-1.539 3.175-3.102 4.5-3.472 1.326-.371 31.547-.72 67.16-.774l64.75-.1v31h-98v19h92v26h-92v19h100v31H368.43zm367.78 13.026v-46.402l-11.25-.665c-6.188-.366-17.42-.523-24.96-.349-13.103.303-13.809.217-15.977-1.938-2.126-2.115-2.26-3.01-2.124-14.33.119-9.927.454-12.415 1.883-13.994 1.682-1.86 3.961-1.92 70.86-1.92 61.019 0 69.384.182 71.351 1.56 4.27 2.99 5.217 6.512 5.217 19.39v12.05h-55v92.999h-40zm115-16.599v-63l15.25.004c13.477.003 15.63.236 18.525 2 1.8 1.099 3.713 3.151 4.25 4.562.593 1.56.975 25.459.975 61v58.434h-39zm-590.75-85.69c-54.029-.264-66.25-.568-66.25-1.644 0-2.176 5.619-21.435 9.53-32.666 12.72-36.522 32.01-70.967 58.077-103.697 10.462-13.136 40.274-42.829 53.893-53.677 76.637-61.045 174.36-87.927 272.912-75.071 105.602 13.775 198.306 73.637 255.837 165.203 16.397 26.097 31.909 61.236 39.836 90.24 1.128 4.126 2.275 8.29 2.55 9.252.461 1.617-.768 1.75-16.118 1.75-13.072 0-17.258-.331-19.622-1.554-3.271-1.692-8.471-9.291-16.946-24.767-2.958-5.401-6.823-11.508-8.588-13.57-4.376-5.112-13.172-9.58-24.98-12.687-11.611-3.055-16.493-5.65-22.126-11.761-5.527-5.996-9.005-13.144-10.397-21.37-1.056-6.239-.934-7.621 1.505-17.008 6.12-23.558 3.728-43.273-7.509-61.902-5.688-9.43-13.397-17.007-25.231-24.8-43.181-28.438-93.61-49.103-141.812-58.113-9.687-1.811-9.69-1.811-17.382.424-10.277 2.986-12.43 4.484-12.43 8.65 0 3.905 5.41 14.712 10.976 21.925 5.137 6.66 5.84 8.812 4.874 14.932-1.549 9.82-10.295 32.994-13.132 34.797-3.948 2.509-12.444-.821-15.058-5.902-2.305-4.481-5.468-15.586-7.097-24.92-1.745-9.996-3.537-13.374-7.095-13.374-1.367 0-11.37 4.432-22.227 9.85-26.98 13.461-27.897 13.779-35.029 12.134-9.543-2.201-18.664-1.544-29.828 2.15-12.58 4.164-44.146 19.783-48.226 23.863-4.786 4.786-5.549 9.209-3.119 18.09 4.612 16.857 4.844 23.32 1.057 29.527-3.184 5.219-9.296 7.411-23.46 8.415-7.678.544-14.554 1.628-17.993 2.837-5.023 1.765-15.073 7.878-21.642 13.165l-2.5 2.011 4.763 4.403c9.759 9.022 20.075 9.577 55.695 2.999 18.617-3.439 21.033-3.68 26.843-2.685 3.512.601 6.64 1.349 6.952 1.661.907.907-4.669 14.228-8.11 19.377-4.185 6.262-11.274 9.764-22.35 11.038-10.485 1.207-16.12 3.96-23.55 11.506-4.56 4.633-7.16 8.6-11.484 17.524-9.03 18.643-14.322 22.757-30.154 23.441-4.183.181-37.418.183-73.855.004zm369.77-151.273c-3.159-5.901-.08-10.528 9.016-13.549 5.448-1.81 8.247-1.365 11.811 1.877 2.558 2.326 6.668 9.633 5.423 9.64-.797.003-17.681 2.594-22.5 3.451-1.99.354-3.008-.031-3.75-1.419zm-38.665-13.798l-8.146-4.64 4.799-7.11c8.242-12.214 13.767-15.58 23.122-14.084 5.9.944 12.977 4.864 17.183 9.52 6.103 6.755 4.548 12.666-4.064 15.45-7.136 2.307-20.835 5.633-22.916 5.564-1.008-.033-5.499-2.148-9.978-4.7z" />
</svg>