<svg fill="currentColor" width="800" height="800" viewBox="0 0 32 32" xmlns="http://www.w3.org/2000/svg">
    <path
        d="M16.012 21.897h-.014a1.153 1.153 0 100 2.308H21.563a1.153 1.153 0 100-2.306h-.011.001zm3.494-5.497a1.265 1.265 0 00-.113-1.554l.001.001-6.99-7.438a1.333 1.333 0 00-1.94 1.822l-.002-.002 5.826 6.198v.137L7.016 22.28a1.333 1.333 0 001.57 2.15l-.005.003 10.283-7.385c.265-.163.482-.382.638-.641l.005-.009zM29.972 4.721l.041-.001a.995.995 0 01.947 1.301l.002-.007-4.572 19.972a1.717 1.717 0 01-1.577 1.293H2.028a.995.995 0 01-.988-1.3l-.002.007L5.61 6.014a1.717 1.717 0 011.577-1.293h.004z" />
</svg>