<svg viewBox="0 0 1038 1038"  width="1038" height="1038" xmlns="http://www.w3.org/2000/svg">
   <g class="stroke-background" stroke-linejoin="round" paint-order="markers stroke fill">
      <path
         d="M417.701 16.224l-57.99 15.687-56.137 21.395 15.666 99.992a421.635 421.635 0 00-87.46 61.536l-88.876-44.794-37.693 46.777-32.84 50.599 67.758 69.007c-16.16 32.478-28.088 67.04-35.076 103.577H105l-94 16-3 60 3 60 94 16h.086A406.52 406.52 0 00140.06 695.92L72.37 764.88l32.84 50.304 37.693 46.777 88.647-44.627c26.593 24.288 56.087 44.894 87.652 61.482l-15.629 99.88 56.137 21.393 57.99 15.688 46.559-91.518a426.655 426.655 0 00105.48 0l45.942 89.615 58.607-13.785 55.52-23.296-15.012-97.977c31.565-16.588 61.058-37.194 87.652-61.482l87.028 43.452 39.312-45.602 31.223-51.48-66.127-67.669a406.523 406.523 0 0035.093-104.372L1021 576l5-60-5-60-92.021-15.662a406.51 406.51 0 00-35.094-104.373l66.127-67.669-31.223-51.48-39.312-45.6-87.028 43.451c-26.594-24.288-56.087-44.894-87.652-61.482l15.012-97.977-55.52-23.297-58.607-13.784-45.942 89.615a426.653 426.653 0 00-52.74-3.271c-17.86 0-35.466 1.104-52.748 3.248zM517 192.84c87.307 0 170.991 34.035 232.727 94.651 61.735 60.616 96.398 142.784 96.398 228.509s-34.663 167.893-96.398 228.509C687.99 805.125 604.307 839.16 517 839.16c-87.307 0-170.991-34.035-232.727-94.651-61.735-60.616-96.398-142.784-96.398-228.509 0-179 146.821-323.16 329.125-323.16z"
         fill="currentColor" stroke-width="19.818" transform="matrix(1.00018 0 0 1.01828 1.91 -6.431)" />
      <path
         d="M517 213.582c-169.26 0-308 135.415-308 302.418 0 167.003 138.74 302.418 308 302.418S825 683.003 825 516c0-167.003-138.74-302.418-308-302.418zm0 73.447c130.383 0 234.553 102.496 234.553 228.971 0 126.475-104.17 228.97-234.553 228.97-130.383 0-234.553-102.495-234.553-228.97S386.617 287.03 517 287.03z"
         overflow="visible" stroke-width="19.818" fill="currentColor"
         transform="matrix(1.00018 0 0 1.01828 1.91 -6.431)" />
      <path transform="matrix(1.00018 0 0 .99982 9.91 10.09)" fill="currentColor" stroke-width="20"
         d="M109 412h174v560H109zM735 412h174v560H735zM331 52v919h129.5V729.5A48.5 48.5 0 01509 681a48.5 48.5 0 0148.5 48.5V971H687V52h-59.5v25.5A118.5 118.5 0 01509 196 118.5 118.5 0 01390.5 77.5V52zm178 229a118.5 118.5 0 01118.5 118.5A118.5 118.5 0 01509 518a118.5 118.5 0 01-118.5-118.5A118.5 118.5 0 01509 281z" />
   </g>
</svg>