<?xml version="1.0" encoding="UTF-8" standalone="no"?>
<!-- Created with Inkscape (http://www.inkscape.org/) -->

<svg
   version="1.1"
   id="svg1"
   width="1037.9999"
   height="1038"
   viewBox="0 0 1037.9999 1038"
   sodipodi:docname="cao.svg"
   inkscape:version="1.4.2 (ebf0e940d0, 2025-05-08)"
   xmlns:inkscape="http://www.inkscape.org/namespaces/inkscape"
   xmlns:sodipodi="http://sodipodi.sourceforge.net/DTD/sodipodi-0.dtd"
   xmlns="http://www.w3.org/2000/svg"
   xmlns:svg="http://www.w3.org/2000/svg">
  <defs
     id="defs1" />
  <sodipodi:namedview
     id="namedview1"
     pagecolor="#505050"
     bordercolor="#eeeeee"
     borderopacity="1"
     inkscape:showpageshadow="0"
     inkscape:pageopacity="0"
     inkscape:pagecheckerboard="0"
     inkscape:deskcolor="#505050"
     showgrid="false"
     inkscape:zoom="0.49666667"
     inkscape:cx="5.033557"
     inkscape:cy="523.48993"
     inkscape:window-width="2560"
     inkscape:window-height="1403"
     inkscape:window-x="0"
     inkscape:window-y="0"
     inkscape:window-maximized="1"
     inkscape:current-layer="layer3" />
  <g
     inkscape:groupmode="layer"
     id="layer3"
     inkscape:label="Layer 2"
     transform="matrix(1.0001754,0,0,1.0182772,1.9092834,-6.4310405)"
     style="display:inline">
    <path
       id="path21"
       style="fill:#000000;fill-opacity:1;stroke:#ffffff;stroke-width:19.8179;stroke-linejoin:round;stroke-dasharray:none;stroke-opacity:1;paint-order:markers stroke fill"
       d="m 417.70117,16.224383 -57.99023,15.687025 -56.13672,21.394188 15.66601,99.992324 c -31.82719,16.81183 -61.20661,37.54588 -87.46093,61.5361 l -88.875,-44.79432 -37.69336,46.77725 -32.839846,50.59855 67.757816,69.00757 c -16.15926,32.47824 -28.08822,67.04063 -35.07618,103.57729 H 105 l -94,15.99962 -3,59.99999 3,60 94,15.99962 h 0.0859 c 6.91007,36.09566 18.69749,71.0424 34.97461,103.92175 l -67.689456,68.95771 32.839846,50.30395 37.69336,46.77725 88.64648,-44.62747 c 26.59373,24.28811 56.08744,44.89443 87.65234,61.4824 l -15.6289,99.87917 56.13672,21.39415 57.99023,15.6871 46.5586,-91.51791 c 17.40171,2.16762 35.01371,3.27165 52.74023,3.27165 17.72651,0 35.33852,-1.10403 52.74023,-3.27165 l 45.94141,89.61551 58.60742,-13.7847 55.51953,-23.29653 -15.01171,-97.97679 c 31.5649,-16.58798 61.05861,-37.19429 87.65234,-61.4824 l 87.02734,43.45191 39.3125,-45.60169 31.22266,-51.47952 -66.12695,-67.669 c 16.35661,-33.01441 28.18477,-68.11611 35.09375,-104.37241 L 1021,575.99997 l 5,-60 -5,-59.99999 -92.02148,-15.6621 c -6.90893,-36.25697 -18.73686,-71.35743 -35.09375,-104.37241 l 66.12695,-67.669 -31.22266,-51.47952 -39.3125,-45.60169 -87.02734,43.45191 c -26.59373,-24.28812 -56.08743,-44.89442 -87.65234,-61.4824 L 729.80859,55.207984 674.28906,31.911408 615.68164,18.12677 569.74023,107.74226 C 552.33852,105.57463 534.72652,104.47061 517,104.47061 c -17.86055,0 -35.46628,1.10443 -52.74805,3.24864 z M 517,192.83958 c 87.30665,0 170.99142,34.03505 232.72656,94.65144 61.73514,60.6164 96.39844,142.78441 96.39844,228.50895 0,85.72455 -34.6633,167.89256 -96.39844,228.50895 -61.73514,60.6164 -145.41991,94.65145 -232.72656,94.65145 -87.30665,0 -170.99142,-34.03505 -232.72656,-94.65145 C 222.5383,683.89253 187.875,601.72452 187.875,515.99997 187.875,336.99985 334.6963,192.83958 517,192.83958 Z"
       sodipodi:nodetypes="ccccccccccccccccccccccccccscccccccccccccccccccccccccsccssssssss" />
    <path
       style="baseline-shift:baseline;display:inline;overflow:visible;opacity:1;stroke:#ffffff;stroke-width:19.8179;stroke-linejoin:round;stroke-dasharray:none;stroke-opacity:1;paint-order:markers stroke fill;enable-background:accumulate;stop-color:#000000;stop-opacity:1"
       d="M 517,213.58203 C 347.73964,213.58203 209,348.99705 209,516 209,683.00295 347.73964,818.41797 517,818.41797 686.26036,818.41797 825,683.00295 825,516 825,348.99705 686.26036,213.58203 517,213.58203 Z m 0,73.44727 C 647.38307,287.0293 751.55273,389.52499 751.55273,516 751.55273,642.47501 647.38307,744.9707 517,744.9707 386.61693,744.9707 282.44727,642.47501 282.44727,516 282.44727,389.52499 386.61693,287.0293 517,287.0293 Z"
       id="path1-0" />
    <rect
       style="display:inline;fill:#000000;fill-opacity:1;stroke:#ffffff;stroke-width:20;stroke-linejoin:round;stroke-dasharray:none;stroke-opacity:1;paint-order:markers stroke fill"
       id="rect22"
       width="174"
       height="560"
       x="109"
       y="412"
       transform="matrix(1,0,0,0.98187739,8,16.224383)" />
    <rect
       style="display:inline;fill:#000000;fill-opacity:1;stroke:#ffffff;stroke-width:20;stroke-linejoin:round;stroke-dasharray:none;stroke-opacity:1;paint-order:markers stroke fill"
       id="rect22-4"
       width="174"
       height="560"
       x="735"
       y="412"
       transform="matrix(1,0,0,0.98187739,8,16.224383)" />
    <path
       id="rect23"
       style="display:inline;fill:#000000;fill-opacity:1;stroke:#ffffff;stroke-width:20;stroke-linejoin:round;stroke-dasharray:none;stroke-opacity:1;paint-order:markers stroke fill"
       d="M 331,52 V 971 H 460.5 V 729.5 A 48.5,48.5 0 0 1 509,681 48.5,48.5 0 0 1 557.5,729.5 V 971 H 687 V 52 H 627.5 V 77.5 A 118.5,118.5 0 0 1 509,196 118.5,118.5 0 0 1 390.5,77.5 V 52 Z M 509,281 A 118.5,118.5 0 0 1 627.5,399.5 118.5,118.5 0 0 1 509,518 118.5,118.5 0 0 1 390.5,399.5 118.5,118.5 0 0 1 509,281 Z"
       transform="matrix(1,0,0,0.98187739,8,16.224383)" />
  </g>
</svg>
