<svg fill="currentColor" width="720.607" height="720.606" viewBox="0 0 720.607 720.607" xmlns="http://www.w3.org/2000/svg">
  <path
    d="M368.665 672.88c1.726-6.74 4.65-13.122 7.346-19.535.831-1.979 2.12-3.775 2.72-5.836.227-.781.956-1.917.317-2.42-1.186-.933-2.787 1.168-4.224 1.628-4.408 1.41-10.337.03-13.447 3.457-5.349 5.894-2.811 15.68-3.682 23.592-.1.91.568 2.208-.176 2.74-1.036.74-2.626-.296-3.687-1-3.698-2.454-5.82-6.742-8.204-10.485-4.927-7.735-6.285-17.753-12.47-24.524-5.198-5.692-15.262-5.918-19.58-12.304-1.992-2.945-.182-7.385-1.904-10.496-2.729-4.93-10.086-6.295-12.494-11.39-1.198-2.535.652-5.814-.432-8.4-1.195-2.852-6.957-3.82-6.273-6.836.235-1.035 1.913-.984 2.954-1.187 6.26-1.218 13.638 3.191 19.132-.048 3.897-2.298 5.56-7.457 6.6-11.86.61-2.582 1.932-6.598-.35-7.95-2.44-1.445-5.501 1.887-7.635 3.756-1.946 1.706-2.493 4.614-4.311 6.455-.787.796-1.677 2.144-2.77 1.9-1.46-.326-1.57-2.55-2.27-3.87-2.676-5.044-3.898-10.93-7.373-15.46-4.1-5.345-9.741-9.42-15.366-13.128-7.71-5.08-16.899-7.547-24.842-12.255-1.532-.907-4.081-1.31-4.374-3.067-.152-.913.997-1.574 1.635-2.245 5.775-6.072 15.29-8.586 19.555-15.799 2.678-4.529-.433-11.37 2.776-15.539 3.128-4.063 10.8-2.44 13.945-6.49 5.07-6.524 6.127-16.244 4.579-24.36-2.388-12.517-13.222-21.801-20.397-32.332-1.383-2.029-1.95-6.408-4.36-5.937-3.057.597-2.255 5.944-2.29 9.057-.088 7.68 4.066 14.854 5.136 22.458.433 3.078 3.223 7.797.509 9.31-2.434 1.359-5.024-2.679-6.864-4.772-10.013-11.396-17.847-25.55-20.962-40.397-1.781-8.49 3.175-17.421 1.69-25.967-1.331-7.67-9.11-13.647-9.285-21.43-.125-5.552 7.505-10.244 5.931-15.57-1.66-5.619-10.907-5.526-14.178-10.387-2.378-3.534-2.235-8.226-3.113-12.394-1.393-6.617-2.7-13.273-3.414-19.997-2.41-22.666-7.78-46.049-2.924-68.32 6.156-28.232 19.73-56.057 39.422-77.205 16.977-18.232 40.132-31.411 63.972-38.643 22.93-6.955 48.445-8.589 71.81-3.279 30.218 6.868 61.083 21.02 81.913 43.963 23.31 25.675 36.905 61.453 40.137 95.981 2.431 25.972-13.128 50.65-16.269 76.545-.834 6.882 1.42 14.175-.664 20.786-5.57 17.671-21.001 30.567-30.4 46.534-6.76 11.482-13.513 23.061-18.65 35.355-1.484 3.55.279 10.186-3.48 11.004-3.049.663-5.238-4.003-6.276-6.946-1.558-4.417.637-9.349.794-14.03.154-4.603 3.004-10.204.146-13.814-2.117-2.674-6.873-3.64-9.982-2.24-3.634 1.636-5.177 6.53-5.773 10.47-2.018 13.341 8.533 26.154 8.184 39.642-.31 12.03-3.666 24.202-9.117 34.93-1.426 2.807-2.966 8.242-5.976 7.316-1.658-.51-.093-3.487-.458-5.182-.761-3.535-.486-8.363-3.576-10.242-3.209-1.952-8.063-.538-11.153 1.596-6.26 4.324-12.061 12.45-11.025 19.988.63 4.574 5.889 7.291 9.718 9.873 5.962 4.02 15.668 2.469 19.928 8.263 4.086 5.558 1.18 13.747 1.863 20.611.568 5.699 6.821 14.222 1.858 17.08-3.06 1.762-5.001-6.351-8.531-6.278-5.79.121-10.065 6.248-13.552 10.871-2.876 3.816-8.039 9.14-5.547 13.218 3.807 6.23 16.964-3.762 21.84 1.672 7.735 8.62 2.985 23.89-1.1 34.728-4.286 11.37-16.523 17.968-23.184 28.13-5.254 8.014-8.992 16.935-13.05 25.616-4.278 9.148-6.14 19.565-11.897 27.862-.866 1.25-1.826 3.515-3.3 3.146-2.054-.514-1.583-3.954-1.991-6.031-1.14-5.79-1.443-11.764-1.23-17.662.29-8.074 1.418-16.168 3.422-23.994zM490.735 7.095c1.855.856 4.481-1.905 6.093-.65 1.522 1.184.431 3.838.815 5.728.782 3.859 3.232 7.486 3.025 11.418-.425 8.076-7.32 14.692-8.641 22.67-1.913 11.547-3.364 24.335 1.256 35.088 1.563 3.639 6.089 5.21 8.32 8.482 2.484 3.647 2.155 9.1 5.406 12.084 8.035 7.377 20.698 6.909 30.902 10.765 7.82 2.955 15.186 7.165 23.22 9.475 8.683 2.496 20.87-2.251 26.702 4.649 2.566 3.034-2.63 8.997.061 11.92 4.547 4.939 13.587-.007 20.062 1.765 3.034.83 7.8 1.012 8.51 4.076.942 4.055-5.53 6.274-7.735 9.805-9.55 15.296-26.987 31.064-23.457 48.747 2.188 10.96 14.71 18.01 25.024 22.316 6.469 2.7 15.37-2.874 20.988 1.318 5.822 4.345 6.962 13.217 7.502 20.46.37 4.963-4.703 9.946-3.005 14.623 2.412 6.644 10.765 9.204 16.6 13.194 8.556 5.851 19.198 8.687 26.86 15.667 1.136 1.035 3.472 2.43 2.682 3.747-1.344 2.243-5.198-.6-7.779-1.02-11.477-1.87-23.581-11.33-34.24-6.682-5.893 2.57-7.151 10.71-10.173 16.385-.833 1.564-.43 4.595-2.183 4.847-1.91.274-2.893-2.676-3.766-4.397-2.801-5.525.258-13.836-4.242-18.093-3.402-3.218-9.17-2.845-13.836-2.44-6.271.543-11.605 5.095-17.756 6.43-1.045.227-2.318.865-3.198.257-1.733-1.198-1.109-4.066-1.755-6.071-4.037-12.523-7.437-25.379-13.248-37.184-8.168-16.591-19.514-31.439-30.061-46.63-10.105-14.552-18.986-30.352-31.795-42.592-11.594-11.079-25.925-18.99-39.82-26.996-13.807-7.956-27.679-16.594-43.055-20.78-19.417-5.284-40.046-4.712-60.168-4.933-20.177-.222-41-1.842-60.425 3.62-20.927 5.886-40.05 17.761-57.589 30.604-19.102 13.986-36.822 30.554-50.712 49.726-15.582 21.505-25.374 46.792-35.285 71.43-6.91 17.175-9.224 36.036-16.738 52.955-.574 1.292-.738 3.809-2.143 3.659-1.11-.119-.78-2.1-1.044-3.185-1.52-6.226-1.642-12.734-3.098-18.974-.408-1.747.169-4.718-1.573-5.146-1.27-.313-1.979 1.738-2.756 2.79-4.488 6.066-7.45 13.137-10.74 19.928-3.543 7.315-7.638 14.514-9.675 22.384-2.214 8.556-2.707 17.549-2.606 26.387.012 1.044 1.16 2.416.38 3.111-.871.775-2.477-.109-3.4-.821-4.788-3.699-6.762-10.224-8.585-15.993-1.85-5.858-2.778-12.182-2.195-18.297.461-4.842 2.51-9.436 4.443-13.9 1.274-2.943 6.707-5.925 4.677-8.408-1.795-2.197-5.724 1.041-8.113 2.573-3.962 2.54-6.763 6.618-9.497 10.45-2.601 3.646-4.057 8.001-6.461 11.778-.476.748-.687 2.218-1.57 2.144-1.579-.131-1.757-2.708-2.135-4.247-1.385-5.64-1.04-11.662-.277-17.418.772-5.83 2.411-11.614 4.866-16.958 1.258-2.737 4.2-4.636 4.968-7.549.253-.96.685-2.514-.196-2.972-1.366-.708-2.754 1.427-3.942 2.404-2.407 1.979-3.892 4.935-6.318 6.89-1.136.916-2.5 2.903-3.78 2.205-1.121-.61-.395-2.566-.178-3.823 2.38-13.775 9.327-26.465 15.875-38.815 2.395-4.516 9.849-7.841 8.492-12.77-1.932-7.015-15.927-3.199-19.69-9.427-.817-1.353.125-3.16.177-4.74.095-2.866-1.58-6.393.25-8.601 3.88-4.683 13.06-.124 17.823-3.907 4.23-3.359 5.843-9.346 6.961-14.63.76-3.594-1.927-7.724-.297-11.015 1.32-2.667 5.7-2.673 7.242-5.217 1.899-3.129-.306-7.727 1.575-10.866 3.115-5.2 13.03-4.943 14.639-10.787 3.928-14.27-12.811-26.796-17.233-40.92-.986-3.15-3.894-6.952-2.047-9.685 2.858-4.229 9.98-2.453 15.08-2.65 20.383-.783 40.554 7.296 60.905 5.927 6.278-.422 14.592.702 18.374-4.327 2.238-2.975-1.75-7.628-.556-11.154 1.591-4.697 8.421-6.538 9.62-11.35.717-2.882-2.925-5.917-1.9-8.704.787-2.138 3.893-2.466 5.438-4.141 3.337-3.621 9.149-7.662 7.966-12.442-.804-3.246-7.688-1.77-8.725-4.95-1.742-5.336 6.892-9.737 6.926-15.35.025-4.211-7.61-8.227-5.058-11.577 3.995-5.245 13.23 1.034 19.576 2.817 8.843 2.485 16.601 7.992 25.33 10.855 8.461 2.776 17.15 5.26 26.018 6.068 15.748 1.434 31.848.687 47.386-2.251 5.995-1.134 12.543-2.095 17.34-5.867 2.278-1.792 1.85-6.6 4.65-7.348 4.335-1.157 8.39 3.488 11.908 6.271 4.858 3.844 6.051 13.352 12.21 14.009 10.528 1.122 16.132-13.977 25.45-19.003 16.184-8.73 35.24-10.942 51.86-18.812 5.195-2.46 9.915-5.821 14.823-8.815 4.138-2.525 7.483-7.837 12.329-7.714 1.57.04 2.756 1.583 3.86 2.699 1.25 1.261 1.394 3.651 3.006 4.394z" />
</svg>