<svg width="800" height="800" viewBox="0 0 48 48" fill="none" xmlns="http://www.w3.org/2000/svg">
   <path fill="#a3cef1" stroke="#000000" stroke-width="4"
      d="M24 44c11.046 0 20-8.954 20-20S35.046 4 24 4 4 12.954 4 24s8.954 20 20 20z" />
   <path fill="#606c38"
      d="M22.007 43.89c.92-1.726 1.381-3.275 1.381-4.646 0-2.056-2.575-1.742-3.606-2.823-1.032-1.08.234-4.015-3.058-5.468-1.862-.822-4.717-.455-8.564 1.099-.459.185-1.144.477-2.055.874l3.576 5.115 6.15 4.328z" />
   <path stroke="#000000" stroke-width="4" stroke-linecap="round"
      d="M6.105 32.926a89.421 89.421 0 012.055-.874c3.847-1.554 6.702-1.92 8.564-1.099 3.292 1.453 2.026 4.387 3.058 5.468 1.03 1.081 3.606.767 3.606 2.823 0 1.371-.46 2.92-1.381 4.646" />
   <path fill="#606c38"
      d="M30.013 42.994c2.286-3.848 3.43-6.706 3.43-8.573 0-2.8-5.168-3.543-5.6-8.556-.433-5.013 8.157-3.92 9.816-3.92 1.658 0 2.341-4.274-.812-4.908-3.154-.634-4.25 1.555-6.834 0C28.29 16.001 30.286 12.99 36 8l5.003 5.326 2.505 7.175.114 7.176-1.936 6.15-3.872 4.556-3.759 2.62z" />
   <path stroke="#000000" stroke-width="4" stroke-linecap="round"
      d="M36 8c-5.714 4.989-7.71 8.001-5.987 9.037 2.584 1.555 3.68-.634 6.834 0 3.153.634 2.47 4.909.812 4.909-1.659 0-10.249-1.094-9.816 3.919.432 5.013 5.6 5.755 5.6 8.556 0 1.867-1.144 4.725-3.43 8.573" />
   <path fill="#606c38"
      d="M4.683 20.84c3.015-1.423 4.562-1.622 6.006-.595 2.168 1.54 2.44 7.819 7.368 4.818 4.93-3-2.11-4.223-.582-8.57 1.528-4.346 6.533-.97 7.03-5.73.332-3.174-3.585-4.147-11.51-3.402l-5.478 4.826-2.164 4.1z" />
   <path stroke="#000000" stroke-width="4" stroke-linecap="round" stroke-linejoin="round"
      d="M4.683 20.84c3.015-1.423 4.562-1.622 6.006-.595 2.168 1.54 2.44 7.819 7.368 4.818 4.93-3-2.11-4.223-.582-8.57 1.528-4.346 6.533-.97 7.03-5.73.332-3.174-3.585-4.147-11.51-3.402" />
   <path stroke-width="4" stroke="#000000"
      d="M24 44c11.046 0 20-8.954 20-20S35.046 4 24 4 4 12.954 4 24s8.954 20 20 20z" />
</svg>