<?xml version="1.0" encoding="UTF-8" standalone="no"?>
<svg
   width="799.436"
   height="800"
   viewBox="0 0 211.517 211.667"
   version="1.1"
   id="svg11"
   sodipodi:docname="xedit_mono.svg"
   inkscape:version="1.4.2 (ebf0e940d0, 2025-05-08)"
   xmlns:inkscape="http://www.inkscape.org/namespaces/inkscape"
   xmlns:sodipodi="http://sodipodi.sourceforge.net/DTD/sodipodi-0.dtd"
   xmlns:xlink="http://www.w3.org/1999/xlink"
   xmlns="http://www.w3.org/2000/svg"
   xmlns:svg="http://www.w3.org/2000/svg">
  <sodipodi:namedview
     id="namedview11"
     pagecolor="#505050"
     bordercolor="#eeeeee"
     borderopacity="1"
     inkscape:showpageshadow="0"
     inkscape:pageopacity="0"
     inkscape:pagecheckerboard="0"
     inkscape:deskcolor="#505050"
     inkscape:zoom="0.725"
     inkscape:cx="286.89655"
     inkscape:cy="706.2069"
     inkscape:window-width="2560"
     inkscape:window-height="1371"
     inkscape:window-x="0"
     inkscape:window-y="0"
     inkscape:window-maximized="1"
     inkscape:current-layer="svg11" />
  <defs
     id="defs6">
    <linearGradient
       id="prefix__b">
      <stop
         offset="0"
         stop-color="#b1c7cb"
         id="stop1" />
      <stop
         offset="0.5"
         stop-color="#9aadb1"
         id="stop2" />
      <stop
         offset="1"
         stop-color="#b1c7cb"
         id="stop3" />
    </linearGradient>
    <linearGradient
       id="prefix__a">
      <stop
         offset="0"
         stop-color="#ff027c"
         id="stop4" />
      <stop
         offset="0.5"
         stop-color="#ff000b"
         id="stop5" />
      <stop
         offset="1"
         stop-color="#ff027c"
         id="stop6" />
    </linearGradient>
    <linearGradient
       xlink:href="#prefix__a"
       id="prefix__d"
       x1="106.292"
       y1="47.685"
       x2="106.292"
       y2="163.982"
       gradientUnits="userSpaceOnUse" />
    <linearGradient
       xlink:href="#prefix__b"
       id="prefix__c"
       x1="105.833"
       y1=".458"
       x2="105.833"
       y2="211.208"
       gradientUnits="userSpaceOnUse" />
    <linearGradient
       inkscape:collect="always"
       xlink:href="#prefix__b"
       id="linearGradient11"
       gradientUnits="userSpaceOnUse"
       x1="105.833"
       y1=".458"
       x2="105.833"
       y2="211.208"
       gradientTransform="translate(1.1163656e-4,1.1674238e-4)" />
    <linearGradient
       inkscape:collect="always"
       xlink:href="#prefix__b"
       id="linearGradient12"
       gradientUnits="userSpaceOnUse"
       x1="105.833"
       y1=".458"
       x2="105.833"
       y2="211.208"
       gradientTransform="translate(-51.050795,103.65608)" />
  </defs>
  <g
     transform="translate(-.075)"
     id="g11">
    <circle
       cx="105.833"
       cy="105.833"
       fill="url(#prefix__c)"
       stroke="#000000"
       stroke-width="4.736"
       stroke-linecap="round"
       stroke-linejoin="round"
       id="circle6"
       style="display:inline;stroke:#000000;stroke-opacity:1;stroke-width:3.96875625;stroke-dasharray:none;fill:#ffffff;fill-opacity:1"
       r="103.391" />
    <path
       style="display:inline;fill:#ffffff;fill-opacity:1;stroke:#000000;stroke-opacity:1;stroke-width:3.96875625;stroke-dasharray:none;stroke-linejoin:round;stroke-linecap:round"
       d="M 95.000754,24.885859 V 44.780283 A 62.006001,62.006001 0 0 0 70.322118,55.002414 L 56.255255,40.935034 40.935235,56.255053 55.002099,70.322433 A 62.006001,62.006001 0 0 0 44.780485,95.001069 H 24.887094 v 21.664861 h 19.893391 a 62.006001,62.006001 0 0 0 10.223164,24.67915 l -14.067897,14.0679 15.320019,15.32002 14.068414,-14.06841 a 62.006001,62.006001 0 0 0 24.676569,10.22109 v 19.89443 h 21.665376 v -19.89494 a 62.006001,62.006001 0 0 0 24.67605,-10.22058 l 14.0679,14.06841 15.32002,-15.32002 -14.06738,-14.0679 a 62.006001,62.006001 0 0 0 10.22265,-24.67915 h 19.89546 V 95.001069 H 166.88537 A 62.006001,62.006001 0 0 0 156.66427,70.32295 l 14.0679,-14.067897 -15.32002,-15.320019 -14.0679,14.067897 A 62.006001,62.006001 0 0 0 116.66613,44.7808 V 24.885859 Z"
       id="circle7" />
    <circle
       cx="105.83311"
       cy="105.83311"
       fill="url(#prefix__c)"
       stroke="#000000"
       stroke-width="4.736"
       stroke-linecap="round"
       stroke-linejoin="round"
       r="103.391"
       id="circle6-6"
       style="display:none;fill:url(#linearGradient11);stroke:none" />
    <path
       id="circle7-6"
       style="display:none;fill:#ffffff;fill-opacity:1"
       d="M 95.000676,24.885954 V 44.780378 A 62.006001,62.006001 0 0 0 70.32204,55.002509 L 56.255177,40.935129 40.935157,56.255148 55.002021,70.322528 A 62.006001,62.006001 0 0 0 44.780407,95.001162 H 24.887016 v 21.664858 h 19.893391 a 62.006001,62.006001 0 0 0 10.223164,24.67915 l -14.067897,14.0679 15.320019,15.32002 14.068414,-14.06841 a 62.006001,62.006001 0 0 0 24.676569,10.22109 v 19.89443 h 21.665374 v -19.89494 a 62.006001,62.006001 0 0 0 24.67606,-10.22058 l 14.0679,14.06841 15.32002,-15.32002 -14.06738,-14.0679 a 62.006001,62.006001 0 0 0 10.22265,-24.67915 h 19.89546 V 95.001162 H 166.8853 A 62.006001,62.006001 0 0 0 156.6642,70.323045 L 170.7321,56.255148 155.41208,40.935129 141.34418,55.003026 A 62.006001,62.006001 0 0 0 116.66605,44.780895 V 24.885954 Z" />
    <path
       d="m 104.992,206.129 c -0.425,-0.942 -2.098,-4.61 -3.717,-8.15 -6.38,-13.954 -6.648,-14.72 -5.75,-16.46 0.266,-0.516 1.556,-2.54 2.866,-4.499 2.929,-4.379 3.288,-5.063 3.288,-6.271 0,-0.572 -0.669,-2.476 -1.665,-4.74 -0.994,-2.261 -1.724,-4.337 -1.812,-5.161 -0.138,-1.279 -0.027,-1.626 1.558,-4.795 0.938,-1.878 2.643,-5.08 3.788,-7.114 2.976,-5.287 3.322,-6.228 3.33,-9.073 0.004,-1.3 -0.183,-3.457 -0.413,-4.795 -0.662,-3.836 -2.26,-9.675 -3.141,-11.474 -1.667,-3.404 -4.539,-6.261 -8.26,-8.22 -1.002,-0.526 -1.88,-0.957 -1.952,-0.957 -0.072,0 -0.116,1.633 -0.097,3.63 0.034,3.604 -0.225,6.232 -0.613,6.232 -0.112,0 -0.36,-0.764 -0.553,-1.698 -0.897,-4.343 -3.467,-7.718 -7.293,-9.58 l -2.192,-1.066 -0.182,4.734 c -0.11,2.867 -0.461,6.501 -0.89,9.215 -0.39,2.464 -0.708,4.809 -0.708,5.21 0,0.955 2.06,4.456 3.687,6.265 1.543,1.716 5,4.089 6.318,4.336 l 0.953,0.179 v 16.188 c 0,8.903 -0.104,16.07 -0.232,15.928 -0.128,-0.144 -2.856,-5.993 -6.064,-13 -3.207,-7.007 -8.294,-18.102 -11.304,-24.657 -3.01,-6.554 -6.799,-14.814 -8.419,-18.355 C 59.751,105.364 55.141,95.334 53.761,92.391 l -1.4,-2.99 9.211,-20.024 A 30949.8,30949.8 0 0 1 72.367,45.93 c 3.8,-8.22 13.191,-28.63 15.942,-34.646 3.82,-8.352 3.462,-7.707 3.983,-7.186 0.32,0.32 0.452,1.244 0.543,3.8 0.14,3.889 0.345,4.73 1.668,6.8 0.861,1.347 1.697,3.422 1.697,4.214 0,0.16 -0.524,-0.28 -1.165,-0.978 -0.64,-0.698 -1.596,-1.409 -2.123,-1.58 -0.876,-0.283 -1.01,-0.25 -1.547,0.369 -1.144,1.322 -3.495,9.484 -7.306,25.371 -3.143,13.105 -3.753,16.848 -3.028,18.607 0.212,0.515 1.44,2.03 2.73,3.368 2.285,2.371 3.137,3.741 3.54,5.695 l 0.198,0.96 -1.747,-1.671 c -0.96,-0.919 -2.16,-1.885 -2.666,-2.146 -1.321,-0.683 -3.53,-0.854 -4.702,-0.365 l -0.963,0.403 -1.299,6.683 c -2.25,11.586 -2.476,14.397 -1.31,16.313 1.086,1.786 4.458,2.619 8.237,2.034 2.906,-0.449 3.91,-0.995 4.233,-2.305 0.22,-0.89 0.16,-1.24 -0.381,-2.26 -0.605,-1.142 -2.05,-2.657 -3.578,-3.754 -0.683,-0.491 -0.681,-0.492 0.907,-0.338 4.19,0.404 8.52,4.52 10.186,9.683 0.258,0.8 0.532,1.393 0.608,1.317 0.334,-0.334 -0.533,-4.759 -1.281,-6.539 -0.452,-1.074 -0.785,-1.988 -0.742,-2.031 0.145,-0.145 2.228,1.339 3.284,2.34 0.575,0.545 1.307,1.413 1.628,1.93 0.957,1.542 0.836,0.58 -0.364,-2.88 -2.454,-7.075 -2.533,-7.408 -2.559,-10.798 -0.022,-3.002 0.019,-3.239 0.855,-5.007 1.683,-3.552 4.558,-5.707 10.49,-7.866 4.113,-1.496 6.004,-2.523 7.677,-4.17 1.892,-1.862 2.305,-2.737 2.304,-4.874 0,-2.121 -0.635,-3.524 -2.255,-4.987 -2.48,-2.24 -5.555,-3.383 -8.53,-3.17 -2.175,0.155 -3.694,0.798 -5.981,2.529 -2.073,1.567 -3.148,3.06 -3.772,5.233 -0.56,1.952 -0.549,1.936 -1.099,1.48 -0.714,-0.593 -1.451,-2.279 -1.65,-3.772 -0.17,-1.284 -0.116,-1.482 0.663,-2.466 1.162,-1.468 1.411,-2.25 1.411,-4.431 0,-1.706 0.132,-2.148 1.439,-4.84 l 1.438,-2.963 -0.083,-4.439 c -0.077,-4.112 -0.04,-4.525 0.515,-5.62 0.739,-1.46 1.642,-2.763 1.803,-2.601 0.067,0.066 -0.018,0.923 -0.19,1.905 -0.255,1.468 -0.235,2.077 0.113,3.439 0.667,2.604 2.04,5.942 2.768,6.726 0.652,0.705 0.727,0.717 4.347,0.717 4.502,0 6.811,-0.574 8.01,-1.991 l 0.75,-0.886 -0.202,0.822 c -0.236,0.964 -0.945,1.781 -2.32,2.675 -3.862,2.51 -4.91,3.289 -5.23,3.887 -0.53,0.99 -0.094,1.357 2.646,2.229 3.82,1.217 6.612,3.419 8.084,6.377 0.54,1.083 0.632,1.692 0.632,4.147 0,2.572 -0.08,3.048 -0.761,4.5 -1.593,3.403 -3.178,4.755 -9.535,8.135 -4.88,2.594 -5.45,3 -6.317,4.487 -0.486,0.835 -0.634,1.494 -0.623,2.771 0.019,2.004 0.158,2.266 4.089,7.65 3.91,5.356 4.563,6.617 6.1,11.77 l 0.245,0.822 0.357,-1.096 c 0.734,-2.258 1.912,-4.18 3.373,-5.503 1.686,-1.527 3.402,-2.624 3.134,-2.005 -1.24,2.866 -1.809,4.775 -1.952,6.55 -0.179,2.223 -0.06,2.147 0.944,-0.613 1.068,-2.938 3.31,-5.682 6.035,-7.389 0.949,-0.594 3.442,-1.317 4.48,-1.299 l 0.841,0.015 -0.685,0.465 c -1.396,0.949 -3.075,2.663 -3.584,3.661 -1.108,2.172 -0.503,3.536 1.885,4.249 1.877,0.56 6.322,0.644 7.746,0.147 1.389,-0.485 2.628,-1.882 3.038,-3.425 0.425,-1.594 0.084,-4.232 -1.878,-14.548 l -1.297,-6.819 -0.891,-0.372 c -2.297,-0.96 -4.668,-0.18 -7.399,2.43 l -1.795,1.718 0.197,-0.959 c 0.404,-1.953 1.241,-3.29 3.636,-5.803 2.996,-3.145 3.23,-3.717 2.801,-6.85 -0.446,-3.263 -1.95,-10.167 -4.11,-18.853 -3.475,-13.987 -5.373,-20.375 -6.39,-21.515 -0.542,-0.606 -0.676,-0.634 -1.684,-0.354 -0.79,0.219 -1.351,0.643 -2.011,1.52 -0.503,0.668 -0.974,1.156 -1.046,1.084 -0.295,-0.295 0.579,-2.605 1.746,-4.614 l 1.247,-2.145 0.267,-3.905 c 0.25,-3.643 0.554,-4.919 1.046,-4.396 0.113,0.12 1.188,2.375 2.39,5.012 1.202,2.636 4.714,10.28 7.804,16.985 9.345,20.275 27.897,60.591 28.555,62.053 l 0.617,1.37 -8.734,19.04 a 55036.782,55036.782 0 0 1 -11.316,24.656 c -11.527,25.074 -18.604,40.496 -18.796,40.958 -0.125,0.301 -0.236,-6.805 -0.245,-15.791 l -0.019,-16.339 0.926,-0.173 c 1.31,-0.246 4.136,-2.146 5.916,-3.978 0.833,-0.856 2.142,-2.619 2.909,-3.916 l 1.395,-2.359 -0.365,-2.283 c -1.057,-6.612 -1.26,-8.418 -1.424,-12.644 l -0.179,-4.608 -2.211,1.108 c -3.87,1.938 -6.38,5.239 -7.273,9.56 -0.193,0.935 -0.432,1.699 -0.532,1.699 -0.453,0 -0.877,-4.247 -0.699,-7.005 l 0.187,-2.882 -0.883,0.457 c -1.262,0.652 -3.63,3.103 -4.336,4.487 -1.517,2.974 -1.692,5.263 -0.973,12.726 0.924,9.596 0.874,9.788 -4.783,18.517 -4.456,6.875 -5.565,8.91 -5.583,10.238 -0.008,0.622 0.52,2.98 1.176,5.241 0.654,2.26 1.19,4.548 1.19,5.083 0,1.099 -0.415,1.826 -3.915,6.834 -3.727,5.332 -3.797,5.569 -2.462,8.215 1.043,2.065 2.256,3.447 3.654,4.16 0.944,0.481 1.476,0.545 3.725,0.446 3.038,-0.133 4.44,-0.71 7.37,-3.033 l 1.732,-1.374 -0.401,0.93 c -0.723,1.675 -7.224,16.22 -8.222,18.395 -0.537,1.168 -1.049,2.123 -1.14,2.123 -0.09,0 -0.511,-0.77 -0.936,-1.712 z"
       fill="url(#prefix__d)"
       stroke="#000000"
       stroke-width="7.651"
       paint-order="markers stroke fill"
       id="path11"
       style="display:inline;fill:#ffffff;fill-opacity:1" />
  </g>
  <g
     inkscape:groupmode="layer"
     id="layer1"
     inkscape:label="backup">
    <circle
       cx="54.782204"
       cy="209.48907"
       fill="url(#prefix__c)"
       stroke="#000000"
       stroke-width="4.736"
       stroke-linecap="round"
       stroke-linejoin="round"
       r="103.391"
       id="circle6-62"
       style="display:none;fill:url(#linearGradient12);stroke:none"
       transform="translate(-0.075)" />
    <path
       id="circle7-9"
       style="display:none;fill:#ffffff;fill-opacity:1"
       d="m 43.994485,128.5877 v 19.89442 A 62.006001,62.006001 0 0 0 19.315849,158.70425 L 5.248986,144.63687 -10.071034,159.95689 3.99583,174.02427 a 62.006001,62.006001 0 0 0 -10.221614,24.67864 h -19.893391 v 21.66486 H -6.225784 A 62.006001,62.006001 0 0 0 3.99738,245.04692 l -14.067897,14.0679 15.320019,15.32002 14.068414,-14.06841 a 62.006001,62.006001 0 0 0 24.676569,10.22109 v 19.89443 h 21.665376 v -19.89494 a 62.006001,62.006001 0 0 0 24.67605,-10.22058 l 14.067899,14.06841 15.32002,-15.32002 -14.06738,-14.0679 a 62.006001,62.006001 0 0 0 10.22265,-24.67915 h 19.89546 V 198.70291 H 115.8791 A 62.006001,62.006001 0 0 0 105.658,174.02479 l 14.0679,-14.0679 -15.32002,-15.32002 -14.067899,14.0679 A 62.006001,62.006001 0 0 0 65.659861,148.48264 V 128.5877 Z"
       transform="translate(-0.075)" />
  </g>
</svg>
